<?xml version="1.0" encoding="utf-8"?>
<!-- Generator: Adobe Illustrator 26.5.0, SVG Export Plug-In . SVG Version: 6.00 Build 0)  -->
<svg version="1.1" id="Calque_1" xmlns="http://www.w3.org/2000/svg" xmlns:xlink="http://www.w3.org/1999/xlink" x="0px" y="0px"
	 viewBox="0 0 768 1152" style="enable-background:new 0 0 768 1152;" xml:space="preserve">
<g transform="translate(0.000000,1152.000000) scale(0.100000,-0.100000)">
	<path d="M5461,7292c-9,127-10,129-65,248c-61,132-114,296-205,641c-33,125-71,249-84,275c-31,61-122,148-184,177l-48,22l-1020,2
		c-819,1-1028-1-1062-11c-83-27-170-101-211-183c-11-21-49-154-86-295c-80-313-141-499-212-640c-35-69-57-128-64-170
		c-6-40-10-479-10-1230V4960h310l-2,293c-2,265-2,278-9,142c-4-82-10-165-14-182c-7-34-20-42-28-20c-3,6-6,2-6-10c-1-12,6-28,14-37
		c8-8,15-27,15-42s-3-24-7-21c-3,4-12-1-19-11c-11-15-13-15-19,10c-4,15-4,31-1,37c4,6-1,25-10,43c-10,18-12,34-7,35c13,5,4,53-9,53
		c-5,0-7-9-3-20c3-11,2-27-3-37c-8-13-11-5-16,37c-9,93-16,650-17,1425c0,726,0,741,21,800c11,33,36,84,55,113c59,89,94,194,190,582
		c31,124,65,248,76,277c26,65,91,127,151,144c32,9,221,10,778,5c718-6,930-12,930-26c0-15-134-20-524-21c-221-1-568-4-773-8l-372-6
		l-35-34c-43-42-49-87-13-96c12-3,467-4,1011-3l990,3l9,34c8,32,6,36-34,71c-44,38-62,80-33,80c32,0,85-34,128-81
		c60-67,82-146,73-261c-3-37-13-26-32,35c-10,28-23,66-30,82c-7,17-18,44-23,60l-10,30l1-33c1-70,26-66-571-72l-537-5l-47-23
		c-59-29-135-104-159-157c-22-48-24-126-3-180c9-22,16-46,16-52c1-7,6-13,12-13c6,0,4-5-4-10c-12-8-12-10-1-10c10,0,11-3,2-14
		c-8-10-9-16-1-21c16-10,12-33-10-55c-12-12-15-20-7-20c7,0,4-7-7-15c-12-9-15-15-7-15c10,0,11-3,2-14c-9-11-9-15,1-19c7-3,2-6-12-7
		c-20,0-22-2-9-10c9-5,135-14,280-20c274-10,422-21,669-45c80-8,164-16,187-17c42-3,42-3,25-25l-17-22l-123,19
		c-221,34-397,45-732,45c-352-1-475-10-745-55c-166-28-230-44-249-61c-6-5-19-9-30-10c-21,0-21-1-1-8c19-7,18-9-5-22
		c-14-7-29-12-33-11c-5,1-6-8-3-20c3-13,3-17,0-10c-3,6-10,12-15,12c-6,0-8-4-4-9c3-5,1-12-4-15c-5-3-7-15-4-26c4-15,0-20-14-20
		c-12,0-20-7-20-17c1-60-4-84-14-77c-7,4-10,1-7-7c3-8-3-32-12-55c-10-22-16-53-13-67c5-24,2-27-21-27c-23,0-25-3-19-30
		c4-20,2-30-7-30c-7,0-10-7-6-15c3-8,0-15-7-16c-7,0-2-4,11-9c12-6,22-18,22-30c0-14,7-20,23-21c12,0,16-3,10-6c-18-7-16-24,5-39
		c23-18,33-17,25,3c-4,11-3,14,5,9c16-10,15,6,0,24c-11,12-10,12,5,0c17-12,21-10,45,21c38,49,96,101,100,89c2-6,13-10,24-10
		c14,0,18-5,14-16c-4-11-2-15,7-11c8,3,14-1,14-9c0-9-7-13-16-9c-13,4-13,2,1-8c16-13,15-17-13-55c-83-114-191-302-214-374
		c-48-153-52-375-9-541c53-207,139-369,289-543l35-41l-108-129c-59-70-155-181-214-245l-106-116l1434-8c790-4,1438-5,1441-2
		C5466,4963,5470,7159,5461,7292z M2406,5115c4,9,9,14,11,11c3-2,0-13-6-23C2399,5083,2397,5089,2406,5115z M3830,7847
		c-61,8-102,27-145,64c-50,44-65,78-65,146c0,116,105,224,215,222l40-1l-45-12c-80-22-137-63-166-118c-22-42-18-126,9-173
		c25-45,96-102,135-111C3861,7853,3877,7841,3830,7847z M3783,7945c-51,30-73,68-73,125c0,54,21,93,65,120c71,44,120,46,184,7
		c70-43,92-132,48-198C3953,7918,3865,7897,3783,7945z M3913,7853c-7-2-19-2-25,0c-7,3-2,5,12,5S3919,7856,3913,7853z M3979,7880
		c-59-31-60-23-2,10c85,49,126,128,105,203c-6,21-6,35-2,32c5-3,12-22,16-41C4109,8012,4056,7919,3979,7880z M4255,7820
		c-19,0-35,5-35,10c0,6,16,10,35,10c19,0,35-4,35-10C4290,7825,4274,7820,4255,7820z M4255,7890c-23,0-35,5-35,14s11,13,35,12
		c21-1,35-6,35-13C4290,7895,4276,7890,4255,7890z M4256,7960c-21,0-36,6-40,15c-4,12,3,15,34,15c29,0,40-4,40-15
		C4290,7965,4280,7960,4256,7960z M4255,8040c-22,0-35,5-35,13c0,9,11,12,35,9c19-2,35-8,35-13S4274,8040,4255,8040z M4253,8112
		c-52,4-56,28-4,28c30,0,41-4,41-16C4290,8113,4281,8110,4253,8112z M4216,8189c-9,14,5,21,41,21c23,0,33-5,33-15
		C4290,8179,4226,8173,4216,8189z M4377,7983c8,9,375,9,437,1c106-15,31-24-199-24C4391,7960,4357,7963,4377,7983z M4647,7820
		c-243,0-277,2-277,15c0,14,31,16,265,13c194-2,267-6,277-15C4922,7823,4869,7820,4647,7820z M2826,6724c16,17,35,19,71,10
		c46-13,35-68-16-79C2824,6643,2788,6687,2826,6724z M4727,5695c-98-146-311-316-487-389c-140-57-269-79-430-73
		c-153,6-252,27-377,80c-167,71-354,220-450,359c-96,139-168,315-193,470c-15,93-8,361,11,433c14,50,14,50,51,47c29-3,43,2,63,22
		c29,29,35,93,10,102c-17,7-1,39,74,153c119,183,340,338,576,406c162,47,319,52,483,14c260-59,480-200,654-418c32-40,68-91,79-114
		c12-22,34-51,50-64c28-24,38-56,20-67c-4-3,2-41,15-84C4961,6277,4908,5965,4727,5695z"/>
	<path d="M3685,7166c-174-34-322-113-456-246c-111-110-202-251-246-385c-24-71-27-96-28-220c0-162,14-230,76-363
		c93-201,244-346,465-449c121-55,211-75,349-76c176,0,305,36,469,132c85,49,204,158,253,231c43,64,108,195,131,265
		c48,141,48,356,2,490c-29,86-113,238-167,306c-64,81-189,180-288,229C4081,7161,3847,7197,3685,7166z M4070,7048
		c228-74,382-205,485-410c69-137,90-228,82-357c-14-235-114-435-288-574c-156-125-334-190-519-190c-121,0-199,20-328,83
		c-85,42-118,66-195,139c-92,89-135,145-119,155c5,3,15-6,22-19c7-14,16-25,20-25s47-40,96-88c99-99,194-158,309-194
		c84-27,276-31,365-9c75,19,194,71,260,114c59,38,138,105,106,89c-19-9-144,29-269,82c-27,12-43,14-55,7c-11-7-12-11-4-11s10-5,6-12
		c-5-7-2-9,8-5c12,4,14,1,10-15s-2-19,9-13c12,7,12,6,1-7c-12-15-22-12-100,35c-57,33-97,50-115,49c-47-4-221,36-344,79
		c-108,38-273,113-273,124c0,6,40-9,80-30c71-37,389-134,490-149l44-7l-69,52c-39,28-142,122-230,208c-165,161-288,255-350,267
		c-45,8-45,22,0,127c145,336,494,498,840,390c328-103,518-375,489-703c-6-75-5-78,16-85c12-4,26-3,30,2c5,4,14,49,21,98
		c20,156-19,311-114,453c-151,224-465,366-735,332c-188-24-324-92-449-224c-87-93-134-164-171-264s-43-291-12-417
		c12-49,23-107,24-127c1-24,8-43,20-51c15-11,16-16,6-22c-9-5-11-4-6,3c4,7,2,12-4,12c-15,0-58,101-81,189c-24,93-26,270-4,356
		c39,147,99,256,200,360c117,121,233,182,430,229c11,3,81,3,155,1C3969,7073,4009,7067,4070,7048z"/>
	<path d="M4735,6705c11-53,32-75,70-75c19,0,35,5,35,10c0,6-7,10-15,10c-30,0-68,26-82,55l-14,30L4735,6705z"/>
	<path d="M3508,7673c12-2,32-2,45,0c12,2,2,4-23,4S3495,7675,3508,7673z"/>
	<path d="M2128,7425c-41-42-179-305-266-510c-117-275-208-547-195-581c4-11,3-15-4-11c-6,4-13-3-17-16c-9-34-6-45,5-17
		c8,20,12,22,19,10c8-12,10-11,11,5c1,11,1,23,0,27c0,3,7,5,17,3c9-1,16-8,15-14c-5-19,15-12,31,10c9,14,21,19,33,15s26,1,36,12
		c12,13,29,18,57,16c22-1,37,2,34,7c-11,18,52,8,68-10c11-13,24-18,37-14c17,4,21,1,21-17s4-20,22-14c20,6,21,5,9-10
		c-12-14-11-16,3-16c13,0,16-5,11-21c-4-12-3-19,2-16s15,2,23-4c9-5,10-9,4-9c-9,0-9-11-1-42c6-24,13-45,16-48s6-11,7-17
		c1-7,3-32,4-55c7-84,17,366,19,793c1,389,6,495,27,562C2184,7470,2167,7463,2128,7425z M1730,6366c0-3-4-8-10-11c-5-3-10-1-10,4
		c0,6,5,11,10,11C1726,6370,1730,6368,1730,6366z"/>
	<path d="M5505,7449c18-28,24-185,26-649c1-278,6-524,11-547c7-31,13-40,26-38c9,2,22,4,27,4c6,1,4,5-4,10c-12,8-12,12,2,26
		c10,9,15,21,12,26c-4,5,1,6,10,3c11-5,18,0,21,13c4,15,12,18,35,15c24-3,28-1,23,12s1,16,29,16c19,0,37,4,39,9c2,4,12,5,23,1
		c15-6,8-9-30-15c-48-8-49-9-20-16c16-5,34-4,38,0c5,5,25,7,45,4c25-4,33-3,28,5s1,12,14,12s19-4,14-11c-5-9,7-10,42-7
		c27,3,43,3,37,1c-19-7-16-19,13-50c21-22,27-25,34-13c8,12,10,10,10-8c0-13-4-20-10-17c-6,4-7-1-3-11c4-11,8-13,11-6c2,7,9,9,15,5
		c7-4,8,0,4,11c-4,10-3,15,4,11c5-4,7-16,3-27c-3-11-2-18,3-15s15-14,22-39c15-51,31-66,31-30c0,14-4,26-10,26c-5,0-7,6-4,14
		c20,52-159,559-325,918c-72,157-176,326-217,353C5507,7463,5496,7464,5505,7449z"/>
	<path d="M2625,7150c3-5,12-7,20-3c21,7,19,13-6,13C2628,7160,2621,7156,2625,7150z"/>
	<path d="M2620,7091c0-6,5-13,10-16c6-3,10,1,10,9c0,9-4,16-10,16C2625,7100,2620,7096,2620,7091z"/>
	<path d="M2616,6984c-11-7-18-16-15-18c2-2,13,2,23,10c11,7,18,16,15,18C2637,6996,2626,6992,2616,6984z"/>
	<path d="M2537,6939c7-7,15-10,18-7s-2,9-12,12C2529,6950,2528,6949,2537,6939z"/>
	<path d="M2610,6936c0-2,7-9,15-16c12-10,15-10,15,4c0,9-7,16-15,16S2610,6938,2610,6936z"/>
	<path d="M2565,6910c-3-5-1-10,4-10c6,0,11,5,11,10c0,6-2,10-4,10C2573,6920,2568,6916,2565,6910z"/>
	<path d="M2570,6785c0-8,4-15,10-15c5,0,7,7,4,15c-4,8-8,15-10,15S2570,6793,2570,6785z"/>
	<path d="M2596,6748c3-5,10-6,15-3c13,9,11,12-6,12C2597,6757,2593,6753,2596,6748z"/>
	<path d="M2515,6669c-4-6-5-12-2-15c2-3,7,2,10,11C2530,6682,2524,6685,2515,6669z"/>
	<path d="M2527,6641c-19-33-24-62-6-44c6,6,11,17,13,26c1,8,8,22,15,31s9,16,4,16S2537,6657,2527,6641z"/>
	<path d="M2514,6335c0-60,1-84,3-52s2,81,0,110S2514,6396,2514,6335z"/>
	<path d="M1848,6343c7-3,16-2,19,1c4,3-2,6-13,5C1843,6349,1840,6346,1848,6343z"/>
	<path d="M1633,6246c0-7,6-13,14-13c7,0,13,4,13,8s-6,9-13,12C1639,6256,1633,6253,1633,6246z"/>
	<path d="M5618,6243c7-3,16-2,19,1c4,3-2,6-13,5C5613,6249,5610,6246,5618,6243z"/>
	<path d="M2511,6094c0-11,3-14,6-6c3,7,2,16-1,19C2513,6111,2510,6105,2511,6094z"/>
	<path d="M6091,6084c0-11,3-14,6-6c3,7,2,16-1,19C6093,6101,6090,6095,6091,6084z"/>
	<path d="M2511,5584c0-11,3-14,6-6c3,7,2,16-1,19C2513,5601,2510,5595,2511,5584z"/>
	<path d="M2492,5330c0-14,2-19,5-12c2,6,2,18,0,25C2494,5349,2492,5344,2492,5330z"/>
	<path d="M2484,5275c-3-8-4-20-2-27c3-7,7-1,10,15C2498,5292,2493,5299,2484,5275z"/>
	<path d="M3007.1,4758.1c-6.5,9.7-15.9,7.7-30,0.4C2987.1,4758.4,2997.1,4758.3,3007.1,4758.1z"/>
	<path d="M3307.5,4752c0.5,0.6,0.9,1.3,1.5,2c15,18,2,27-20,13c-14-8-21-9-30,0c-7,7-21,8-39,3c-16-5-31-5-35-2c-10,10-36,11-29,1
		c3-5,0-9-5-9c-1.3,0-2.4-1.5-3.5-4.5C3200.8,4754.4,3254.2,4753.1,3307.5,4752z"/>
	<path d="M5840,4138c13,2,30,11,36,20c11,15,48,17,313,21c166,2,301,5,301,7c0,2-37,71-81,154c-45,82-79,155-76,162
		c3,7,28,65,56,128c28,62,51,115,51,117s-97,3-215,3c-140,0-215,4-215,10c0,6,14,41,30,77c27,58,37,107,19,89c-3-3-460-7-1015-8
		c-874-2-1387-9-1219-16c31-1,45-5,37-11c-7-4-24-6-38-3c-13,2-24,0-24-6c0-7-15-9-40-6c-32,4-40,2-40-11c0-9-4-13-10-10
		c-5,3-10,2-10-2c0-16-60-31-100-26c-22,3-52,1-67-5c-16-5-37-13-48-18c-11-4-28-6-37-5c-10,1-18-2-18-7s-17-6-41-2
		c-37,7-42,5-51-16c-4.6-10-11-18.7-15.9-22.3c5.6-0.1,11.3-0.2,16.9-0.3c7.7,6.9,24.9,8.6,65,8.6h64l2-10.6
		c71-0.7,141.9-0.7,212.8,0.6c0.6,6.3,1.3,10.2,2.2,11.1c2,3,26,4,52,3c28.4-1.4,40.3-3.2,46.9-11.3c34.1,1.3,68.2,2.8,102.3,4.9
		c4.9,0.3,9.9,0.5,14.8,0.8l0,1.7h31.1c69.3,3.7,138.6,6.6,207.9,8.7v1.3l25.4-0.5c193.6,5.7,387.3,7.4,581,13.7
		c137,4.4,274,3.8,411,3.8c76.9,0,210,27.5,246.3-64.8c17.2-43.8-0.4-86.5-3.3-130.7c-3.7-56.2,28.3-110.5,35.7-165.4
		c15.5-114.8-120.3-128.2-204.8-133.2c-143.2-8.5-288.5-3.1-432-4.7c-145.3-1.7-290.6-3.2-436-2.4c-295.5,1.5-589.8,29.4-885,30.7
		c-144.2,0.6-288.7-4.5-432.5,7c-140.9,11.3-280.4-6-421.5-6.6c-115.4-0.5-228.9,4.8-343.9-3.1c-40.9-2.8-89.4,0.7-106,44.8
		c-13.3,35.5-0.7,77.1-8.5,114c-18.6,87.6-56.2,196.4,2.5,277.7c57.1,79.1,192.8,77.2,276.9,52.7c10.3-3,19.2-9.8,25.8-18.5
		c119.1-5.3,237.5-18,356.7-23.2c14.3,1.8,22.1,5.3,22.1,10.5c0,9,3,9,11,1c1.6-1.6,2.9-6,4.1-12.9c16.1-0.5,32.2-0.8,48.3-0.9
		c17.2-0.1,34.3-0.3,51.5-0.5c1.4,1.8,3,3.8,5.1,6.3c14,16,13,17-7,11c-15-5-24-2-31,10c-8,15-11,15-34,0c-20-13-27-14-31-4
		c-7,20-63,21-81,2c-14-13-16-13-16-1c0,17-43,31-70,22c-11-3-29-1-41,6c-12,6-58,12-101,13c-43,1-83,7-89,13c-6,6-18,9-27,6
		c-8-4-21,2-29,13c-8,10-17,19-21,19c-4,0-7,9-6,19c1,17,0,18-11,2c-12-16-48-17-62-1c-5,4-3,6,2,3c6-3,19-2,30,3c12,4-26,8-95,8
		c-63,1-233,4-377,7c-145,2-263,3-263,2c0-2,13-35,30-73c16-39,30-76,30-82c0-10-48-13-205-13c-126,0-205-4-205-10c0-5,22-62,50-126
		l50-116l-77-154c-42-85-74-156-72-158c8-6,1357-16,2579-18c674-1,1171-5,1105-8c-66-3-102-7-81-8c22-1,36-5,32-9
		c-4-5-722-11-1594-16c-873-4-1595-8-1605-9c-56-7,52-57,195-92l88-21v-175h271c258,0,272-1,300-21c16-11,29-25,29-30
		c0-6-115-9-305-7l-305,3l-16-40c-9-22-18-46-21-52c-4-10,65-13,326-13h331v50c0,28,2,50,5,50c3,0,33-23,67-51
		c268-217,631-377,963-424c151-22,408-19,551,5c342,59,633,187,920,406c46,35,86,64,89,64s3-22-1-50l-7-50h337c185,0,336,3,336,8
		c-1,4-11,26-23,50l-23,43l-302-1c-166,0-302,3-302,8s11,18,23,31c24,21,29,22,298,21l274-1l3,88l3,88l109,27c61,15,131,37,158,49
		l47,22l-35,8c-19,4-75,11-125,15C5856,4130,5826,4136,5840,4138z M3507,4794c-3-3-12-4-19-1c-8,3-5,6,6,6
		C3505,4800,3511,4797,3507,4794z M2725,4790c3,6,8,10,11,10c2,0,4-4,4-10c0-5-5-10-11-10C2724,4780,2722,4785,2725,4790z
		 M2128,4552c-17-17-65-15-99,5c-29,17-30,17-56-9l-27-27l-48,27c-26,15-48,30-48,33c0,13,41,42,77,54c40,15,180,10,197-6
		c17-15,0-20-26-8c-19,8-31,8-47,0c-28-16-27-37,5-58c25-16,28-16,55,0C2141,4579,2150,4574,2128,4552z M4723.5,3911.4
		c1,1.8,2,3.6,2.9,5.4c4.4,0.5,8.8,1,13.1,1.6C4734.3,3915.9,4728.8,3913.7,4723.5,3911.4z"/>
	<path d="M1923,4610c-51-23-53-34-13-55c31-16,31-16,24,10c-6,25,8,35,21,15c10-15,22-12,44,12C2038,4633,1995,4643,1923,4610z"/>
	<path d="M3027,4768c2-5,24-8,48-8s46,3,48,8c3,4-19,7-48,7S3024,4772,3027,4768z"/>
</g>
<path d="M568.9,695.7c-2.3-3.6-6.6-4.8-10.5-5.9c-0.9-0.2-1.8-0.5-2.6-0.7c-0.1-0.1-0.1-0.1-0.2-0.2c-0.1-1.9-1.1-3.8-2.9-4.5
	c3.2-0.5,5.6-4.5,3.6-7.5c-4.9-7-12.9-6.8-20.7-6.9c-10.8-0.1-21.6,0-32.4,0.2c-21.3,0.4-42.6,1.6-63.9,3.2c-4.1,0.3-8.2,0.7-12.3,1
	c-8.5,0-17,0-25.6,0c-8.3,0-16.6,0-24.9,0c-7.3,0-16.6,1.5-23.2-2.6c-2.8-1.7-6.5-0.1-7.3,3c-0.3,1.1-19,0.5-20.8,0.6
	c-5.9,0.1-11.8,0.3-17.6,0.4c-2.2-0.1-4.4,0-6.6,0.1c-0.6,0-1.2,0.2-1.7,0.4l-1.6,0.1c-21.5-3.5-43.1-6.3-64.8-8.5
	c-2-0.2-3.4,0.7-4.1,2.1c-1.6-1-3.3-1.8-5.1-2.5c-3.4-1.2-6,1.8-6.3,4.8c-0.1,0.9-0.2,1.8-0.3,2.7c-0.6,0.2-1.2,0.6-1.7,1.2
	c-2.2,2.4-3.5,5-4.3,7.9c-12-1.1-23.7,1.3-34.6,6.6c-5.2,2.5-1.5,10.5,3.9,9.1c5.2-1.3,10.5-1.4,15.7,0.2c0.6,0.2,1.1,0.4,1.7,0.6
	c0.2,0.4,0.4,0.8,0.6,1.2c2.5,4.3,7.5,6.7,12.9,8.2c-2,0-4.1,0-6.1,0.1c-6.5,0.1-6.3,9.4,0,10c45.2,4.2,90.5,4.1,135.8,3.8
	c21.9-0.2,43.8-0.7,65.7-1.3c27.4,1.2,54.9,2.4,82.2,2.3c10.3,0,20.6-0.5,30.9-1.6c0.1,0.3,0.3,0.6,0.4,0.8
	c3.1,4.8,8.3,6.4,13.8,5.4c2.6-0.5,5-1.5,7.2-2.8c2.7-1.6,5.9-4.6,9.3-4.9c0.9,0.1,1.9,0.1,2.8,0.2c4.7,0.4,6.4-6.2,3.4-8.9
	c0.7-2,0.3-4.3-1.3-5.7c1.8-0.1,3.6-0.1,5.4-0.2C567,707,573,702.1,568.9,695.7z"/>
</svg>
